<svg width="18" height="18" viewBox="0 0 18 18" fill="none" xmlns="http://www.w3.org/2000/svg">
<g clip-path="url(#clip0_559_14990)">
<path d="M10.6875 5.62499C10.6875 5.4758 10.7468 5.33273 10.8523 5.22724C10.9577 5.12175 11.1008 5.06249 11.25 5.06249H17.4375C17.5867 5.06249 17.7298 5.12175 17.8353 5.22724C17.9407 5.33273 18 5.4758 18 5.62499C18 5.77417 17.9407 5.91724 17.8353 6.02273C17.7298 6.12822 17.5867 6.18749 17.4375 6.18749H11.25C11.1008 6.18749 10.9577 6.12822 10.8523 6.02273C10.7468 5.91724 10.6875 5.77417 10.6875 5.62499ZM17.4375 8.43749H11.25C11.1008 8.43749 10.9577 8.49675 10.8523 8.60224C10.7468 8.70773 10.6875 8.8508 10.6875 8.99999C10.6875 9.14917 10.7468 9.29224 10.8523 9.39773C10.9577 9.50322 11.1008 9.56249 11.25 9.56249H17.4375C17.5867 9.56249 17.7298 9.50322 17.8353 9.39773C17.9407 9.29224 18 9.14917 18 8.99999C18 8.8508 17.9407 8.70773 17.8353 8.60224C17.7298 8.49675 17.5867 8.43749 17.4375 8.43749ZM17.4375 11.8125H12.9375C12.7883 11.8125 12.6452 11.8717 12.5398 11.9772C12.4343 12.0827 12.375 12.2258 12.375 12.375C12.375 12.5242 12.4343 12.6672 12.5398 12.7727C12.6452 12.8782 12.7883 12.9375 12.9375 12.9375H17.4375C17.5867 12.9375 17.7298 12.8782 17.8353 12.7727C17.9407 12.6672 18 12.5242 18 12.375C18 12.2258 17.9407 12.0827 17.8353 11.9772C17.7298 11.8717 17.5867 11.8125 17.4375 11.8125ZM10.6699 13.3594C10.6883 13.4309 10.6924 13.5054 10.682 13.5786C10.6716 13.6517 10.6469 13.7221 10.6093 13.7857C10.5717 13.8493 10.5219 13.9048 10.4628 13.9492C10.4037 13.9936 10.3365 14.0258 10.2649 14.0442C10.2191 14.0566 10.1718 14.0627 10.1243 14.0625C9.99955 14.0625 9.87831 14.0211 9.77967 13.9448C9.68102 13.8684 9.61057 13.7614 9.57938 13.6406C9.14625 11.9573 7.4461 10.6875 5.6243 10.6875C3.8025 10.6875 2.10235 11.9566 1.66922 13.6406C1.63193 13.7851 1.53875 13.9089 1.41018 13.9847C1.28162 14.0606 1.1282 14.0822 0.983675 14.0449C0.839152 14.0076 0.715365 13.9144 0.639545 13.7859C0.563724 13.6573 0.542082 13.5039 0.579378 13.3594C0.972425 11.8329 2.115 10.5968 3.56485 9.98436C3.00659 9.55437 2.59692 8.96043 2.39329 8.28584C2.18966 7.61124 2.20229 6.88983 2.4294 6.22277C2.65652 5.55572 3.08672 4.97648 3.65969 4.56629C4.23266 4.15611 4.91964 3.93555 5.6243 3.93555C6.32896 3.93555 7.01594 4.15611 7.58891 4.56629C8.16188 4.97648 8.59208 5.55572 8.8192 6.22277C9.04631 6.88983 9.05894 7.61124 8.85531 8.28584C8.65168 8.96043 8.24201 9.55437 7.68375 9.98436C9.1343 10.5968 10.2769 11.8329 10.6699 13.3594ZM5.625 9.56249C6.07001 9.56249 6.50503 9.43053 6.87504 9.18329C7.24505 8.93606 7.53343 8.58466 7.70373 8.17352C7.87403 7.76239 7.91859 7.30999 7.83177 6.87353C7.74495 6.43707 7.53066 6.03616 7.21599 5.72149C6.90133 5.40683 6.50041 5.19253 6.06396 5.10572C5.6275 5.0189 5.1751 5.06346 4.76396 5.23376C4.35283 5.40405 4.00143 5.69244 3.7542 6.06245C3.50696 6.43246 3.375 6.86748 3.375 7.31249C3.375 7.90922 3.61206 8.48152 4.03401 8.90348C4.45597 9.32543 5.02827 9.56249 5.625 9.56249Z" fill="#181818"/>
</g>
<defs>
<clipPath id="clip0_559_14990">
<rect width="18" height="18" fill="white"/>
</clipPath>
</defs>
</svg>
